<svg width="480" height="360" viewBox="0 0 480 360" fill="none" xmlns="http://www.w3.org/2000/svg">
<rect width="480" height="360" fill="transparent"/>
<path opacity="0.24" fill-rule="evenodd" clip-rule="evenodd" d="M0 198.781C0 240.238 14.9454 278.016 39.539 306.566C67.7534 339.331 108.667 359.931 154.273 360C174.204 360.029 193.262 356.113 210.768 348.964C219.819 345.265 229.95 345.69 238.716 350.071C248.999 355.204 260.514 358.082 272.673 358.082C277.696 358.082 282.615 357.587 287.373 356.648C300.954 353.978 313.313 347.658 323.462 338.708C329.841 333.081 338.01 330.252 346.36 330.262H346.502C374.091 330.262 399.717 321.53 420.994 306.566C440.015 293.206 455.548 274.87 465.898 253.342C474.92 234.581 480 213.388 480 190.958C480 114.027 420.226 51.6534 346.502 51.6534C338.986 51.6534 331.622 52.3158 324.439 53.5518C305.418 21.4201 271.355 0 232.498 0C216.093 0 200.54 3.81769 186.619 10.6612C173.379 17.1483 161.608 26.3663 151.978 37.6C119.281 38.144 89.048 49.2899 64.303 67.8914C25.3514 97.1552 0 144.882 0 198.781Z" fill="url(#paint0_linear_0_2301)"/>
<defs>
<linearGradient id="paint0_linear_0_2301" x1="328.81" y1="424.032" x2="505.393" y2="26.0479" gradientUnits="userSpaceOnUse">
<stop stop-color="#00AAAA"/>
<stop offset="1" stop-color="#00AB55" stop-opacity="0.01"/>
</linearGradient>
</defs>
</svg>
