<svg width="100" height="100" viewBox="0 0 120 140" fill="none" xmlns="http://www.w3.org/2000/svg">
<path opacity="0.48062" fill-rule="evenodd" clip-rule="evenodd" d="M66.2588 139.387C65.8588 139.495 65.4472 139.258 65.3395 138.858C65.2317 138.458 65.4686 138.046 65.8685 137.939C66.4523 137.781 67.0607 137.618 67.7995 137.419C68.1995 137.312 68.6109 137.549 68.7184 137.949C68.8259 138.349 68.5887 138.76 68.1887 138.868C67.4502 139.066 66.8422 139.23 66.2588 139.387ZM73.9851 137.308C73.5853 137.416 73.1734 137.18 73.0653 136.78C72.9571 136.38 73.1935 135.968 73.5934 135.86C74.2666 135.678 74.9047 135.505 75.5218 135.336C75.9215 135.228 76.3337 135.463 76.4427 135.863C76.5516 136.262 76.316 136.675 75.9163 136.784C75.2982 136.952 74.6593 137.126 73.9851 137.308ZM81.7055 135.179C81.3069 135.292 80.8924 135.06 80.7797 134.661C80.6669 134.263 80.8987 133.848 81.2972 133.736C81.9496 133.551 82.5886 133.369 83.2168 133.188C83.6148 133.074 84.0304 133.303 84.1449 133.701C84.2594 134.099 84.0296 134.515 83.6315 134.63C83.0011 134.811 82.36 134.994 81.7055 135.179ZM89.3975 132.919C89.0015 133.041 88.582 132.818 88.4606 132.422C88.3392 132.026 88.5618 131.607 88.9578 131.485C89.6009 131.288 90.2355 131.091 90.8625 130.894C91.2576 130.77 91.6786 130.989 91.8029 131.384C91.9271 131.78 91.7075 132.201 91.3124 132.325C90.6819 132.523 90.044 132.721 89.3975 132.919ZM97.0372 130.448C96.6453 130.583 96.2189 130.374 96.0847 129.982C95.9506 129.59 96.1595 129.163 96.5514 129.029C97.1851 128.812 97.8123 128.594 98.4334 128.375C98.824 128.237 99.2524 128.442 99.3904 128.832C99.5284 129.223 99.3236 129.651 98.933 129.789C98.3073 130.01 97.6755 130.23 97.0372 130.448ZM104.581 127.692C104.195 127.842 103.76 127.652 103.61 127.266C103.459 126.88 103.649 126.445 104.035 126.295C104.567 126.087 105.094 125.878 105.614 125.668C105.748 125.613 105.748 125.613 105.881 125.558C106.264 125.401 106.703 125.583 106.86 125.966C107.018 126.349 106.836 126.788 106.453 126.945C106.318 127.001 106.318 127.001 106.178 127.058C105.649 127.271 105.117 127.482 104.581 127.692ZM111.96 124.349C111.599 124.551 111.142 124.421 110.94 124.059C110.738 123.697 110.868 123.241 111.23 123.039C111.814 122.713 112.371 122.379 112.903 122.035C113.251 121.811 113.715 121.91 113.94 122.258C114.165 122.606 114.065 123.07 113.717 123.295C113.157 123.657 112.573 124.007 111.96 124.349ZM118.449 119.207C118.198 119.537 117.727 119.601 117.398 119.35C117.068 119.099 117.004 118.629 117.254 118.299C117.638 117.794 117.955 117.266 118.187 116.734C118.353 116.354 118.795 116.181 119.175 116.347C119.554 116.513 119.728 116.955 119.562 117.335C119.279 117.98 118.902 118.61 118.449 119.207ZM118.836 110.85C119.062 111.197 118.963 111.662 118.616 111.888C118.269 112.114 117.805 112.015 117.579 111.668C117.253 111.167 116.864 110.687 116.414 110.225C116.125 109.929 116.132 109.454 116.428 109.165C116.725 108.876 117.2 108.882 117.489 109.179C118.005 109.709 118.455 110.264 118.836 110.85ZM112.357 105.572C112.723 105.765 112.864 106.219 112.672 106.585C112.479 106.952 112.025 107.093 111.659 106.9C111.552 106.844 111.443 106.787 111.347 106.738C110.87 106.506 110.389 106.287 109.898 106.079C109.517 105.918 109.338 105.478 109.499 105.097C109.661 104.715 110.101 104.537 110.482 104.698C110.998 104.916 111.503 105.145 112.019 105.396C112.133 105.455 112.246 105.514 112.357 105.572ZM104.648 102.808C105.051 102.904 105.3 103.309 105.204 103.712C105.107 104.115 104.703 104.363 104.3 104.267C103.673 104.118 103.032 103.98 102.377 103.854C101.97 103.776 101.703 103.383 101.782 102.976C101.86 102.57 102.253 102.303 102.66 102.381C103.336 102.511 103.999 102.654 104.648 102.808ZM96.6377 101.555C97.0502 101.593 97.354 101.958 97.3162 102.37C97.2785 102.782 96.9135 103.086 96.501 103.049C95.8617 102.99 95.2048 102.938 94.5238 102.89C94.1106 102.862 93.7989 102.503 93.8276 102.09C93.8563 101.677 94.2145 101.365 94.6277 101.394C95.3193 101.442 95.9871 101.495 96.6377 101.555ZM88.5799 101.103C88.9938 101.117 89.3178 101.464 89.3034 101.878C89.2891 102.292 88.9419 102.616 88.5279 102.602C88.23 102.592 87.9239 102.581 87.5397 102.568C87.2226 102.563 86.9029 102.559 86.58 102.556C86.1658 102.552 85.8334 102.213 85.8375 101.799C85.8416 101.385 86.1807 101.052 86.5949 101.056C86.9203 101.06 87.2428 101.064 87.5762 101.069C87.9746 101.082 88.2812 101.093 88.5799 101.103ZM80.5765 101.078C80.9907 101.072 81.3313 101.403 81.3374 101.817C81.3434 102.231 81.0126 102.572 80.5984 102.578C79.9585 102.587 79.2977 102.598 78.6024 102.612C78.1883 102.62 77.846 102.291 77.8379 101.877C77.8298 101.463 78.159 101.12 78.5731 101.112C79.2708 101.099 79.934 101.087 80.5765 101.078ZM72.5702 101.252C72.9843 101.242 73.3282 101.569 73.3384 101.983C73.3486 102.397 73.0211 102.741 72.607 102.751C71.8237 102.771 71.2049 102.785 70.6066 102.799C70.1925 102.809 69.849 102.481 69.8395 102.067C69.83 101.653 70.158 101.309 70.5721 101.3C71.1695 101.286 71.7875 101.271 72.5702 101.252ZM64.5843 101.401C64.9985 101.398 65.3372 101.731 65.3407 102.145C65.3443 102.559 65.0114 102.898 64.5972 102.901C64.1781 102.905 63.7662 102.908 63.3631 102.909C63.112 102.911 62.8586 102.914 62.6008 102.917C62.1867 102.923 61.8463 102.592 61.8406 102.178C61.8348 101.764 62.166 101.423 62.5801 101.417C62.841 101.414 63.0975 101.411 63.3546 101.409C63.7581 101.408 64.1675 101.405 64.5843 101.401ZM56.5733 101.573C56.9874 101.562 57.3313 101.89 57.3416 102.304C57.3518 102.718 57.0244 103.062 56.6103 103.072C55.8758 103.09 55.2246 103.102 54.5989 103.108C54.1847 103.112 53.8458 102.779 53.842 102.365C53.8383 101.95 54.171 101.612 54.5852 101.608C55.2024 101.602 55.846 101.59 56.5733 101.573ZM48.6525 101.412C49.0652 101.447 49.3718 101.809 49.3372 102.222C49.3025 102.635 48.9399 102.941 48.5271 102.907C47.8562 102.851 47.1852 102.782 46.5093 102.7C46.0982 102.649 45.8054 102.276 45.8555 101.864C45.9056 101.453 46.2795 101.16 46.6907 101.21C47.3477 101.291 48.0001 101.357 48.6525 101.412ZM40.8635 100.183C41.2674 100.275 41.5201 100.677 41.4281 101.081C41.336 101.485 40.934 101.737 40.5301 101.645C39.9186 101.506 39.2972 101.355 38.6649 101.193C38.6107 101.179 38.6107 101.179 38.5591 101.165C38.1587 101.059 37.9201 100.648 38.0261 100.248C38.1322 99.8477 38.5428 99.6091 38.9432 99.7152C38.9892 99.7273 38.9892 99.7273 39.038 99.7399C39.6572 99.8989 40.2653 100.046 40.8635 100.183ZM33.8763 97.1238C34.1991 97.3833 34.2504 97.8554 33.9909 98.1782C33.7313 98.5011 33.2592 98.5524 32.9364 98.2928C32.3894 97.8531 31.8724 97.3776 31.3908 96.8713C31.1054 96.5712 31.1172 96.0965 31.4173 95.811C31.7175 95.5255 32.1922 95.5374 32.4777 95.8375C32.9132 96.2954 33.3811 96.7257 33.8763 97.1238ZM29.5168 90.9471C29.6441 91.3413 29.4277 91.764 29.0335 91.8913C28.6394 92.0186 28.2166 91.8023 28.0894 91.4081C27.8694 90.727 27.7081 90.0346 27.6079 89.3361C27.5491 88.9261 27.8339 88.5461 28.2439 88.4873C28.6539 88.4285 29.034 88.7132 29.0928 89.1232C29.1807 89.7368 29.3227 90.3463 29.5168 90.9471ZM29.7133 83.6111C29.5752 84.0016 29.1467 84.2063 28.7562 84.0682C28.3656 83.9301 28.161 83.5015 28.2991 83.111C28.5291 82.4606 28.8062 81.8188 29.1289 81.1844C29.3167 80.8152 29.7682 80.6682 30.1374 80.856C30.5066 81.0438 30.6537 81.4953 30.4659 81.8645C30.1723 82.4416 29.9211 83.0234 29.7133 83.6111ZM33.8632 77.1498C33.5811 77.4531 33.1065 77.4703 32.8032 77.1882C32.4999 76.9062 32.4827 76.4316 32.7647 76.1283C33.2161 75.6429 33.6945 75.1596 34.2018 74.6745C34.5012 74.3883 34.9759 74.3989 35.2622 74.6983C35.5485 74.9977 35.5378 75.4724 35.2384 75.7587C34.7517 76.2241 34.2939 76.6866 33.8632 77.1498Z" fill="azure"/>
<path d="M118.933 0.286229C119.693 0.477044 119.87 1.39704 119.676 2.05808C119.24 4.0003 118.483 5.85393 117.886 7.75186C109.585 33.6652 101.284 59.5785 92.983 85.4919C92.7989 86.5141 91.725 87.2739 90.7125 87.0525C80.1545 78.4215 69.5693 69.8144 58.9909 61.2073C54.1977 66.2264 49.4761 71.3341 44.2739 75.9341C42.9443 77.0245 41.6216 78.1762 40.0432 78.8849C39.6205 79.0144 38.8636 79.2631 38.6693 78.6907C38.6114 77.6548 38.8739 76.636 38.9795 75.6138C40.2511 65.6982 41.5398 55.7827 42.8932 45.8773C29.2739 43.8636 15.658 41.8532 2.03864 39.853C1.3125 39.7304 0.347726 39.5975 0.085226 38.7831C-0.0579558 37.7541 0.951135 37.1271 1.79659 36.8613C7.36364 35.2701 12.8455 33.4028 18.375 31.6855C51 21.3236 83.6284 10.9685 116.253 0.606525C117.116 0.357784 118.03 0.06134 118.933 0.286229Z" fill="url(#paint0_linear_0_966)"/>
<path fill-rule="evenodd" clip-rule="evenodd" d="M64.9513 33.5692C68.8753 31.2466 72.7991 28.9241 76.7318 26.6187C88.3909 19.7425 100.05 12.863 111.709 5.98341C106.416 10.2413 101.059 14.4243 95.7029 18.6074C92.4347 21.1597 89.1665 23.7119 85.9125 26.2813C82.3084 29.1071 78.7046 31.9333 75.1009 34.7595C67.8887 40.4155 60.6766 46.0715 53.4614 51.7244C53.1459 51.9774 52.8176 52.2159 52.4892 52.4546C51.8309 52.933 51.172 53.4118 50.6148 54.0074C49.9393 54.7477 49.601 55.6875 49.2656 56.6192C49.1626 56.9054 49.0599 57.1907 48.9477 57.4693C48.1337 59.5473 47.2616 61.6035 46.3892 63.6603C45.8769 64.8684 45.3644 66.0766 44.8636 67.2895C43.5614 70.4209 42.1807 73.5387 40.367 76.4179C41.0976 70.3791 41.899 64.3503 42.7003 58.3217C43.2152 54.4481 43.73 50.5746 44.2261 46.6985C44.2432 46.6059 44.2549 46.5082 44.2667 46.4092C44.3143 46.0124 44.3644 45.5946 44.7682 45.4037C51.5258 41.5158 58.2387 37.5425 64.9513 33.5692ZM41.9761 76.4997C45.5523 69.5759 48.6443 62.4135 51.6239 55.217C52.1443 55.6428 52.6638 56.0699 53.1832 56.4971C54.7802 57.8102 56.3774 59.1236 58.0057 60.3963C53.0318 66.1003 47.7204 71.559 41.9761 76.4997Z" fill="rgb(114, 17, 204)"/>
<defs>
<linearGradient id="paint0_linear_0_966" x1="14.3936" y1="23.5168" x2="16.0127" y2="89.055" gradientUnits="userSpaceOnUse">
<stop stop-color="azure"/>
<stop offset="2" stop-color="#fff"/>
</linearGradient>
</defs>
</svg>
